<svg width="30" height="33" viewBox="0 0 30 33" fill="none" xmlns="http://www.w3.org/2000/svg">
<path d="M8 22.1667V20.5H9.66667V14.6667C9.66667 13.5139 10.0139 12.4896 10.7083 11.5938C11.4028 10.6979 12.3056 10.1111 13.4167 9.83333V9.25C13.4167 8.90278 13.5382 8.60764 13.7812 8.36458C14.0243 8.12153 14.3194 8 14.6667 8C15.0139 8 15.309 8.12153 15.5521 8.36458C15.7951 8.60764 15.9167 8.90278 15.9167 9.25V9.83333C17.0278 10.1111 17.9306 10.6979 18.625 11.5938C19.3194 12.4896 19.6667 13.5139 19.6667 14.6667V20.5H21.3333V22.1667H8ZM14.6667 24.6667C14.2083 24.6667 13.816 24.5035 13.4896 24.1771C13.1632 23.8507 13 23.4583 13 23H16.3333C16.3333 23.4583 16.1701 23.8507 15.8438 24.1771C15.5174 24.5035 15.125 24.6667 14.6667 24.6667ZM11.3333 20.5H18V14.6667C18 13.75 17.6736 12.9653 17.0208 12.3125C16.3681 11.6597 15.5833 11.3333 14.6667 11.3333C13.75 11.3333 12.9653 11.6597 12.3125 12.3125C11.6597 12.9653 11.3333 13.75 11.3333 14.6667V20.5Z" fill="#0F172A"/>
</svg>
