<svg width="33" height="33" viewBox="0 0 33 33" fill="none" xmlns="http://www.w3.org/2000/svg">
<path d="M14.0833 24.6667L13.75 22C13.5694 21.9306 13.3993 21.8472 13.2396 21.75C13.0799 21.6528 12.9236 21.5486 12.7708 21.4375L10.2917 22.4792L8 18.5208L10.1458 16.8958C10.1319 16.7986 10.125 16.7049 10.125 16.6146C10.125 16.5243 10.125 16.4306 10.125 16.3333C10.125 16.2361 10.125 16.1424 10.125 16.0521C10.125 15.9618 10.1319 15.8681 10.1458 15.7708L8 14.1458L10.2917 10.1875L12.7708 11.2292C12.9236 11.1181 13.0833 11.0139 13.25 10.9167C13.4167 10.8194 13.5833 10.7361 13.75 10.6667L14.0833 8H18.6667L19 10.6667C19.1806 10.7361 19.3507 10.8194 19.5104 10.9167C19.6701 11.0139 19.8264 11.1181 19.9792 11.2292L22.4583 10.1875L24.75 14.1458L22.6042 15.7708C22.6181 15.8681 22.625 15.9618 22.625 16.0521C22.625 16.1424 22.625 16.2361 22.625 16.3333C22.625 16.4306 22.625 16.5243 22.625 16.6146C22.625 16.7049 22.6111 16.7986 22.5833 16.8958L24.7292 18.5208L22.4375 22.4792L19.9792 21.4375C19.8264 21.5486 19.6667 21.6528 19.5 21.75C19.3333 21.8472 19.1667 21.9306 19 22L18.6667 24.6667H14.0833ZM15.5417 23H17.1875L17.4792 20.7917C17.9097 20.6806 18.309 20.5174 18.6771 20.3021C19.0451 20.0868 19.3819 19.8264 19.6875 19.5208L21.75 20.375L22.5625 18.9583L20.7708 17.6042C20.8403 17.4097 20.8889 17.2049 20.9167 16.9896C20.9444 16.7743 20.9583 16.5556 20.9583 16.3333C20.9583 16.1111 20.9444 15.8924 20.9167 15.6771C20.8889 15.4618 20.8403 15.2569 20.7708 15.0625L22.5625 13.7083L21.75 12.2917L19.6875 13.1667C19.3819 12.8472 19.0451 12.5799 18.6771 12.3646C18.309 12.1493 17.9097 11.9861 17.4792 11.875L17.2083 9.66667H15.5625L15.2708 11.875C14.8403 11.9861 14.441 12.1493 14.0729 12.3646C13.7049 12.5799 13.3681 12.8403 13.0625 13.1458L11 12.2917L10.1875 13.7083L11.9792 15.0417C11.9097 15.25 11.8611 15.4583 11.8333 15.6667C11.8056 15.875 11.7917 16.0972 11.7917 16.3333C11.7917 16.5556 11.8056 16.7708 11.8333 16.9792C11.8611 17.1875 11.9097 17.3958 11.9792 17.6042L10.1875 18.9583L11 20.375L13.0625 19.5C13.3681 19.8194 13.7049 20.0868 14.0729 20.3021C14.441 20.5174 14.8403 20.6806 15.2708 20.7917L15.5417 23ZM16.4167 19.25C17.2222 19.25 17.9097 18.9653 18.4792 18.3958C19.0486 17.8264 19.3333 17.1389 19.3333 16.3333C19.3333 15.5278 19.0486 14.8403 18.4792 14.2708C17.9097 13.7014 17.2222 13.4167 16.4167 13.4167C15.5972 13.4167 14.9062 13.7014 14.3438 14.2708C13.7812 14.8403 13.5 15.5278 13.5 16.3333C13.5 17.1389 13.7812 17.8264 14.3438 18.3958C14.9062 18.9653 15.5972 19.25 16.4167 19.25Z" fill="#0F172A"/>
</svg>
