<svg width="20" height="20" viewBox="0 0 20 20" fill="none" xmlns="http://www.w3.org/2000/svg">
<path d="M0 20L2 10H18L20 20H0ZM1 2V0H4V2H1ZM2.45 18H9V16H2.85L2.45 18ZM4.125 7.325L2.7 5.925L4.825 3.8L6.25 5.2L4.125 7.325ZM3.25 14H9V12H3.65L3.25 14ZM10 5C8.61667 5 7.4375 4.5125 6.4625 3.5375C5.4875 2.5625 5 1.38333 5 0H7C7 0.833333 7.29167 1.54167 7.875 2.125C8.45833 2.70833 9.16667 3 10 3C10.8333 3 11.5417 2.70833 12.125 2.125C12.7083 1.54167 13 0.833333 13 0H15C15 1.38333 14.5125 2.5625 13.5375 3.5375C12.5625 4.5125 11.3833 5 10 5ZM9 9V6H11V9H9ZM11 18H17.55L17.15 16H11V18ZM11 14H16.75L16.35 12H11V14ZM15.875 7.325L13.775 5.2L15.175 3.8L17.3 5.9L15.875 7.325ZM16 2V0H19V2H16Z" fill="#64748B"/>
</svg>
