<svg width="48" height="48" viewBox="0 0 48 48" fill="none" xmlns="http://www.w3.org/2000/svg">
<rect width="48" height="48" rx="24" fill="#FFDBCD"/>
<path d="M32.0875 33.9125L20.4375 22.2625C20.4042 22.4292 20.375 22.5959 20.35 22.7625C20.325 22.9292 20.3125 23.1042 20.3125 23.2875C20.3125 23.8375 20.4167 24.3542 20.625 24.8375C20.8333 25.3209 21.1208 25.7459 21.4875 26.1125L20.0625 27.5375C19.5292 26.9875 19.1042 26.35 18.7875 25.625C18.4708 24.9 18.3125 24.1209 18.3125 23.2875C18.3125 22.8209 18.3625 22.3709 18.4625 21.9375C18.5625 21.5042 18.7042 21.0959 18.8875 20.7125L17.4125 19.2375C17.0625 19.8375 16.7917 20.475 16.6 21.15C16.4083 21.825 16.3125 22.5375 16.3125 23.2875C16.3125 24.4042 16.5208 25.4459 16.9375 26.4125C17.3542 27.3792 17.9292 28.2209 18.6625 28.9375L17.2375 30.3625C16.3375 29.4459 15.625 28.3834 15.1 27.175C14.575 25.9667 14.3125 24.6709 14.3125 23.2875C14.3125 22.2542 14.4583 21.2792 14.75 20.3625C15.0417 19.4459 15.4458 18.5875 15.9625 17.7875L13.6875 15.5125L15.1125 14.0875L33.5125 32.4875L32.0875 33.9125ZM32.6625 28.7875L31.2125 27.3375C31.5625 26.7375 31.8333 26.1 32.025 25.425C32.2167 24.75 32.3125 24.0375 32.3125 23.2875C32.3125 22.1709 32.1042 21.1292 31.6875 20.1625C31.2708 19.1959 30.6958 18.3542 29.9625 17.6375L31.3875 16.2125C32.2875 17.1125 33 18.1667 33.525 19.375C34.05 20.5834 34.3125 21.8875 34.3125 23.2875C34.3125 24.3042 34.1667 25.275 33.875 26.2C33.5833 27.125 33.1792 27.9875 32.6625 28.7875ZM29.7375 25.8625L28.1875 24.3125C28.2208 24.1459 28.25 23.9792 28.275 23.8125C28.3 23.6459 28.3125 23.4709 28.3125 23.2875C28.3125 22.7375 28.2083 22.2209 28 21.7375C27.7917 21.2542 27.5042 20.8292 27.1375 20.4625L28.5625 19.0375C29.0958 19.5709 29.5208 20.2 29.8375 20.925C30.1542 21.65 30.3125 22.4375 30.3125 23.2875C30.3125 23.7542 30.2625 24.2042 30.1625 24.6375C30.0625 25.0709 29.9208 25.4792 29.7375 25.8625Z" fill="#360F00"/>
</svg>
