<svg width="48" height="48" viewBox="0 0 48 48" fill="none" xmlns="http://www.w3.org/2000/svg">
<rect width="48" height="48" rx="24" fill="#FFDAD6"/>
<path d="M13 33.5L24 14.5L35 33.5H13ZM24 30.5C24.2833 30.5 24.5208 30.4042 24.7125 30.2125C24.9042 30.0208 25 29.7833 25 29.5C25 29.2167 24.9042 28.9792 24.7125 28.7875C24.5208 28.5958 24.2833 28.5 24 28.5C23.7167 28.5 23.4792 28.5958 23.2875 28.7875C23.0958 28.9792 23 29.2167 23 29.5C23 29.7833 23.0958 30.0208 23.2875 30.2125C23.4792 30.4042 23.7167 30.5 24 30.5ZM23 27.5H25V22.5H23V27.5Z" fill="#93000A"/>
</svg>
