<svg width="40" height="40" viewBox="0 0 40 40" fill="none" xmlns="http://www.w3.org/2000/svg">
<rect width="40" height="40" rx="20" fill="#2C3E50"/>
<path d="M10 30L12 20H28L30 30H10ZM11 12V10H14V12H11ZM12.45 28H19V26H12.85L12.45 28ZM14.125 17.325L12.7 15.925L14.825 13.8L16.25 15.2L14.125 17.325ZM13.25 24H19V22H13.65L13.25 24ZM20 15C18.6167 15 17.4375 14.5125 16.4625 13.5375C15.4875 12.5625 15 11.3833 15 10H17C17 10.8333 17.2917 11.5417 17.875 12.125C18.4583 12.7083 19.1667 13 20 13C20.8333 13 21.5417 12.7083 22.125 12.125C22.7083 11.5417 23 10.8333 23 10H25C25 11.3833 24.5125 12.5625 23.5375 13.5375C22.5625 14.5125 21.3833 15 20 15ZM19 19V16H21V19H19ZM21 28H27.55L27.15 26H21V28ZM21 24H26.75L26.35 22H21V24ZM25.875 17.325L23.775 15.2L25.175 13.8L27.3 15.9L25.875 17.325ZM26 12V10H29V12H26Z" fill="white"/>
</svg>
