<svg width="96" height="88" viewBox="0 0 96 88" fill="none" xmlns="http://www.w3.org/2000/svg">
<rect width="96" height="88" rx="44" fill="#4A7C59" fill-opacity="0.1"/>
<path d="M45.2 53.2L59.3 39.1L56.5 36.3L45.2 47.6L39.5 41.9L36.7 44.7L45.2 53.2ZM48 64C45.2333 64 42.6333 63.475 40.2 62.425C37.7667 61.375 35.65 59.95 33.85 58.15C32.05 56.35 30.625 54.2333 29.575 51.8C28.525 49.3667 28 46.7667 28 44C28 41.2333 28.525 38.6333 29.575 36.2C30.625 33.7667 32.05 31.65 33.85 29.85C35.65 28.05 37.7667 26.625 40.2 25.575C42.6333 24.525 45.2333 24 48 24C50.7667 24 53.3667 24.525 55.8 25.575C58.2333 26.625 60.35 28.05 62.15 29.85C63.95 31.65 65.375 33.7667 66.425 36.2C67.475 38.6333 68 41.2333 68 44C68 46.7667 67.475 49.3667 66.425 51.8C65.375 54.2333 63.95 56.35 62.15 58.15C60.35 59.95 58.2333 61.375 55.8 62.425C53.3667 63.475 50.7667 64 48 64Z" fill="#4A7C59"/>
</svg>
