<svg width="23" height="23" viewBox="0 0 23 23" fill="none" xmlns="http://www.w3.org/2000/svg">
<path d="M7.5 15V7.5H15V15H7.5ZM10 12.5H12.5V10H10V12.5ZM7.5 22.5V20H5C4.3125 20 3.72396 19.7552 3.23438 19.2656C2.74479 18.776 2.5 18.1875 2.5 17.5V15H0V12.5H2.5V10H0V7.5H2.5V5C2.5 4.3125 2.74479 3.72396 3.23438 3.23438C3.72396 2.74479 4.3125 2.5 5 2.5H7.5V0H10V2.5H12.5V0H15V2.5H17.5C18.1875 2.5 18.776 2.74479 19.2656 3.23438C19.7552 3.72396 20 4.3125 20 5V7.5H22.5V10H20V12.5H22.5V15H20V17.5C20 18.1875 19.7552 18.776 19.2656 19.2656C18.776 19.7552 18.1875 20 17.5 20H15V22.5H12.5V20H10V22.5H7.5ZM17.5 17.5V5H5V17.5H17.5Z" fill="#162839"/>
</svg>
