<svg width="19" height="19" viewBox="0 0 19 19" fill="none" xmlns="http://www.w3.org/2000/svg">
<path d="M1.66667 18.3333V14.8333C1.18056 14.6667 0.78125 14.3715 0.46875 13.9479C0.15625 13.5243 0 13.0417 0 12.5V4.16667H1.66667V0.833333C1.66667 0.597222 1.74653 0.399306 1.90625 0.239583C2.06597 0.0798611 2.26389 0 2.5 0C2.73611 0 2.93403 0.0798611 3.09375 0.239583C3.25347 0.399306 3.33333 0.597222 3.33333 0.833333V4.16667H5V12.5C5 13.0417 4.84375 13.5243 4.53125 13.9479C4.21875 14.3715 3.81944 14.6667 3.33333 14.8333V18.3333H1.66667ZM8.33333 18.3333V14.8333C7.84722 14.6667 7.44792 14.3715 7.13542 13.9479C6.82292 13.5243 6.66667 13.0417 6.66667 12.5V4.16667H8.33333V0.833333C8.33333 0.597222 8.41319 0.399306 8.57292 0.239583C8.73264 0.0798611 8.93056 0 9.16667 0C9.40278 0 9.60069 0.0798611 9.76042 0.239583C9.92014 0.399306 10 0.597222 10 0.833333V4.16667H11.6667V12.5C11.6667 13.0417 11.5104 13.5243 11.1979 13.9479C10.8854 14.3715 10.4861 14.6667 10 14.8333V18.3333H8.33333ZM15 18.3333V14.8333C14.5139 14.6667 14.1146 14.3715 13.8021 13.9479C13.4896 13.5243 13.3333 13.0417 13.3333 12.5V4.16667H15V0.833333C15 0.597222 15.0799 0.399306 15.2396 0.239583C15.3993 0.0798611 15.5972 0 15.8333 0C16.0694 0 16.2674 0.0798611 16.4271 0.239583C16.5868 0.399306 16.6667 0.597222 16.6667 0.833333V4.16667H18.3333V12.5C18.3333 13.0417 18.1771 13.5243 17.8646 13.9479C17.5521 14.3715 17.1528 14.6667 16.6667 14.8333V18.3333H15ZM1.66667 5.83333V9.16667H3.33333V5.83333H1.66667ZM8.33333 5.83333V9.16667H10V5.83333H8.33333ZM15 5.83333V9.16667H16.6667V5.83333H15ZM2.5 13.3333C2.73611 13.3333 2.93403 13.2535 3.09375 13.0938C3.25347 12.934 3.33333 12.7361 3.33333 12.5V10.8333H1.66667V12.5C1.66667 12.7361 1.74653 12.934 1.90625 13.0938C2.06597 13.2535 2.26389 13.3333 2.5 13.3333ZM9.16667 13.3333C9.40278 13.3333 9.60069 13.2535 9.76042 13.0938C9.92014 12.934 10 12.7361 10 12.5V10.8333H8.33333V12.5C8.33333 12.7361 8.41319 12.934 8.57292 13.0938C8.73264 13.2535 8.93056 13.3333 9.16667 13.3333ZM15.8333 13.3333C16.0694 13.3333 16.2674 13.2535 16.4271 13.0938C16.5868 12.934 16.6667 12.7361 16.6667 12.5V10.8333H15V12.5C15 12.7361 15.0799 12.934 15.2396 13.0938C15.3993 13.2535 15.5972 13.3333 15.8333 13.3333Z" fill="#162839"/>
</svg>
