<svg width="14" height="9" viewBox="0 0 14 9" fill="none" xmlns="http://www.w3.org/2000/svg">
<path d="M0 1.66667V0H1.66667V1.66667H0ZM0 8.33333V3.33333H1.66667V8.33333H0ZM5.83333 8.33333H4.16667C3.70833 8.33333 3.31597 8.17014 2.98958 7.84375C2.66319 7.51736 2.5 7.125 2.5 6.66667V1.66667C2.5 1.20833 2.66319 0.815972 2.98958 0.489583C3.31597 0.163194 3.70833 0 4.16667 0H5.83333C6.29167 0 6.68403 0.163194 7.01042 0.489583C7.33681 0.815972 7.5 1.20833 7.5 1.66667V6.66667C7.5 7.125 7.33681 7.51736 7.01042 7.84375C6.68403 8.17014 6.29167 8.33333 5.83333 8.33333ZM4.16667 6.66667H5.83333V1.66667H4.16667V6.66667ZM8.33333 8.33333V6.66667H11.6667V5H10C9.54167 5 9.14931 4.83681 8.82292 4.51042C8.49653 4.18403 8.33333 3.79167 8.33333 3.33333V1.66667C8.33333 1.20833 8.49653 0.815972 8.82292 0.489583C9.14931 0.163194 9.54167 0 10 0H13.3333V1.66667H10V3.33333H11.6667C12.125 3.33333 12.5174 3.49653 12.8438 3.82292C13.1701 4.14931 13.3333 4.54167 13.3333 5V6.66667C13.3333 7.125 13.1701 7.51736 12.8438 7.84375C12.5174 8.17014 12.125 8.33333 11.6667 8.33333H8.33333Z" fill="#1C1C18"/>
</svg>
