<svg width="30" height="30" viewBox="0 0 30 30" fill="none" xmlns="http://www.w3.org/2000/svg">
<path d="M0 30L3 15H27L30 30H0ZM1.5 3V0H6V3H1.5ZM3.675 27H13.5V24H4.275L3.675 27ZM6.1875 10.9875L4.05 8.8875L7.2375 5.7L9.375 7.8L6.1875 10.9875ZM4.875 21H13.5V18H5.475L4.875 21ZM15 7.5C12.925 7.5 11.1562 6.76875 9.69375 5.30625C8.23125 3.84375 7.5 2.075 7.5 0H10.5C10.5 1.25 10.9375 2.3125 11.8125 3.1875C12.6875 4.0625 13.75 4.5 15 4.5C16.25 4.5 17.3125 4.0625 18.1875 3.1875C19.0625 2.3125 19.5 1.25 19.5 0H22.5C22.5 2.075 21.7687 3.84375 20.3062 5.30625C18.8438 6.76875 17.075 7.5 15 7.5ZM13.5 13.5V9H16.5V13.5H13.5ZM16.5 27H26.325L25.725 24H16.5V27ZM16.5 21H25.125L24.525 18H16.5V21ZM23.8125 10.9875L20.6625 7.8L22.7625 5.7L25.95 8.85L23.8125 10.9875ZM24 3V0H28.5V3H24Z" fill="#E9E1D6"/>
</svg>
