<svg width="40" height="40" viewBox="0 0 40 40" fill="none" xmlns="http://www.w3.org/2000/svg">
<rect width="40" height="40" rx="8" fill="#162839"/>
<path d="M11 12V10H14V12H11ZM10 30H19V26H10.8L10 30ZM14.125 17.325L12.7 15.925L14.825 13.8L16.25 15.2L14.125 17.325ZM11.2 24H19V20H12L11.2 24ZM20 15C18.6167 15 17.4375 14.5125 16.4625 13.5375C15.4875 12.5625 15 11.3833 15 10H25C25 11.3833 24.5125 12.5625 23.5375 13.5375C22.5625 14.5125 21.3833 15 20 15ZM19 19V16H21V19H19ZM21 30H30L29.2 26H21V30ZM21 24H28.8L28 20H21V24ZM25.875 17.325L23.775 15.2L25.175 13.8L27.3 15.9L25.875 17.325ZM26 12V10H29V12H26Z" fill="#FCF9F3"/>
</svg>
