<svg width="33" height="33" viewBox="0 0 33 33" fill="none" xmlns="http://www.w3.org/2000/svg">
<path d="M16.5 23.925L14.175 18.75L9 16.425L14.175 14.0625L16.5 8.925L18.8625 14.0625L24 16.425L18.8625 18.75L16.5 23.925ZM16.5 32.925C13.8 32.925 11.2688 32.3063 8.90625 31.0688C6.54375 29.8313 4.575 28.1 3 25.875V29.925H0V20.925H9V23.925H5.325C6.6 25.8 8.21875 27.2687 10.1812 28.3312C12.1437 29.3937 14.25 29.925 16.5 29.925C19.375 29.925 21.9813 29.1 24.3188 27.45C26.6562 25.8 28.3 23.6125 29.25 20.8875L32.175 21.5625C31.05 24.9625 29.05 27.7063 26.175 29.7938C23.3 31.8813 20.075 32.925 16.5 32.925ZM0.075 14.925C0.25 13.25 0.65 11.6438 1.275 10.1062C1.9 8.56875 2.7625 7.15 3.8625 5.85L6 7.9875C5.2 9.0125 4.55 10.1062 4.05 11.2688C3.55 12.4313 3.2375 13.65 3.1125 14.925H0.075ZM8.1 5.8875L5.9625 3.75C7.2875 2.65 8.7125 1.78125 10.2375 1.14375C11.7625 0.50625 13.35 0.125 15 0V3C13.725 3.125 12.5125 3.4375 11.3625 3.9375C10.2125 4.4375 9.125 5.0875 8.1 5.8875ZM24.9375 5.8875C23.9125 5.0875 22.8188 4.4375 21.6562 3.9375C20.4937 3.4375 19.275 3.125 18 3V0C19.675 0.15 21.2812 0.5375 22.8188 1.1625C24.3563 1.7875 25.775 2.65 27.075 3.75L24.9375 5.8875ZM29.925 14.925C29.8 13.65 29.4875 12.4313 28.9875 11.2688C28.4875 10.1062 27.8375 9.0125 27.0375 7.9875L29.175 5.85C30.275 7.15 31.1375 8.56875 31.7625 10.1062C32.3875 11.6438 32.775 13.25 32.925 14.925H29.925Z" fill="#162839"/>
</svg>
